<svg width="2079" height="1560" xmlns="http://www.w3.org/2000/svg" xmlns:xlink="http://www.w3.org/1999/xlink" xml:space="preserve" overflow="hidden"><defs><clipPath id="clip0"><rect x="1239" y="1300" width="2079" height="1560"/></clipPath></defs><g clip-path="url(#clip0)" transform="translate(-1239 -1300)"><g><path d="M1607.5 2321.58 3240.5 2321.58M1607.5 2121.57 3240.5 2121.57M1607.5 1922.56 3240.5 1922.56M1607.5 1722.56 3240.5 1722.56M1607.5 1522.5 3240.5 1522.5" stroke="#D9D9D9" stroke-width="3.4375" stroke-linejoin="round" stroke-miterlimit="10" fill="none"/></g><g><path d="M1607.5 2522.5 3240.5 2522.5" stroke="#D9D9D9" stroke-width="3.4375" stroke-linejoin="round" stroke-miterlimit="10" fill="none" fill-rule="evenodd"/></g><g><path d="M1634 2092 1687.06 2198.07 1740.06 2304.08 1792.06 2318.08 1845.06 2364.08 1897.06 2359.08 1950.06 2357.08 2003.07 2356.08 2055.07 2362.08 2108.07 2368.08 2161.07 2369.08 2213.07 2366.08 2266.07 2377.08 2319.08 2393.08 2371.08 2405.08 2424.08 2407 2477.08 2400.08 2529.08 2401.08 2582.08 2403.08 2635.09 2398.08 2687.09 2353.08 2740.09 2288.07 2793.09 2270.07 2845.09 2229.07 2898.1 2219.07 2951.1 2182.07 3003.1 2194.07 3056.1 2162.07 3108.1 2196.07 3161.1 2146.07 3214 2161.07" stroke="#5B9BD5" stroke-width="10.3125" stroke-linecap="round" stroke-linejoin="round" stroke-miterlimit="10" fill="none"/></g><g><path d="M1634 2120 1687.06 2203.07 1740.06 2283.07 1792.06 2309.08 1845.06 2323.08 1897.06 2328.08 1950.06 2311.08 2003.07 2316.08 2055.07 2322.08 2108.07 2324.08 2161.07 2321.08 2213.07 2318.08 2266.07 2321.08 2319.08 2331.08 2371.08 2336 2424.08 2328.08 2477.08 2328.08 2529.08 2325.08 2582.08 2329.08 2635.09 2326.08 2687.09 2292.08 2740.09 2270.07 2793.09 2258.07 2845.09 2241.07 2898.1 2234.07 2951.1 2222.07 3003.1 2216.07 3056.1 2203.07 3108.1 2228.07 3161.1 2189.07 3214 2200.07" stroke="#ED7D31" stroke-width="10.3125" stroke-linecap="round" stroke-linejoin="round" stroke-miterlimit="10" stroke-dasharray="20.625 20.625" fill="none"/></g><g><path d="M1634 2140 1687.06 2236.07 1740.06 2313.08 1792.06 2337.08 1845.06 2362.08 1897.06 2371.08 1950.06 2359.08 2003.07 2365.08 2055.07 2374.08 2108.07 2377.08 2161.07 2375.08 2213.07 2373.08 2266.07 2379.08 2319.08 2395.08 2371.08 2403 2424.08 2401.08 2477.08 2397.08 2529.08 2396.08 2582.08 2401.08 2635.09 2394.08 2687.09 2349.08 2740.09 2295.08 2793.09 2270.07 2845.09 2237.07 2898.1 2222.07 2951.1 2193.07 3003.1 2196.07 3056.1 2171.07 3108.1 2193.07 3161.1 2148.07 3214 2159.07" stroke="#A5A5A5" stroke-width="10.3125" stroke-linecap="round" stroke-linejoin="round" stroke-miterlimit="10" stroke-dasharray="20.625 20.625" fill="none"/></g><g><path d="M1634 2127 1687.06 2229.07 1740.06 2306.08 1792.06 2335.08 1845.06 2356.08 1897.06 2363.08 1950.06 2349.08 2003.07 2354.08 2055.07 2361.08 2108.07 2363.08 2161.07 2361.08 2213.07 2359.08 2266.07 2366.08 2319.08 2380.08 2371.08 2390 2424.08 2385.08 2477.08 2381.08 2529.08 2380.08 2582.08 2388.08 2635.09 2381.08 2687.09 2331.08 2740.09 2284.07 2793.09 2258.07 2845.09 2227.07 2898.1 2212.07 2951.1 2189.07 3003.1 2188.07 3056.1 2163.07 3108.1 2194.07 3161.1 2140.07 3214 2160.07" stroke="#FFC000" stroke-width="10.3125" stroke-linecap="round" stroke-linejoin="round" stroke-miterlimit="10" stroke-dasharray="20.625 20.625" fill="none"/></g><g><text fill="#595959" font-family="Meiryo,Meiryo_MSFontService,sans-serif" font-weight="400" font-size="64" transform="matrix(1 0 0 1 1497.31 2534)">0</text></g><g><text fill="#595959" font-family="Meiryo,Meiryo_MSFontService,sans-serif" font-weight="400" font-size="64" transform="matrix(1 0 0 1 1435.04 2334)">0.2</text></g><g><text fill="#595959" font-family="Meiryo,Meiryo_MSFontService,sans-serif" font-weight="400" font-size="64" transform="matrix(1 0 0 1 1435.04 2134)">0.4</text></g><g><text fill="#595959" font-family="Meiryo,Meiryo_MSFontService,sans-serif" font-weight="400" font-size="64" transform="matrix(1 0 0 1 1435.04 1934)">0.6</text></g><g><text fill="#595959" font-family="Meiryo,Meiryo_MSFontService,sans-serif" font-weight="400" font-size="64" transform="matrix(1 0 0 1 1435.04 1734)">0.8</text></g><g><text fill="#595959" font-family="Meiryo,Meiryo_MSFontService,sans-serif" font-weight="400" font-size="64" transform="matrix(1 0 0 1 1497.31 1534)">1</text></g><g><text fill="#595959" font-family="Meiryo,Meiryo_MSFontService,sans-serif" font-weight="400" font-size="64" transform="matrix(1 0 0 1 1574.5 2635)">400</text></g><g><text fill="#595959" font-family="Meiryo,Meiryo_MSFontService,sans-serif" font-weight="400" font-size="64" transform="matrix(1 0 0 1 1837.77 2635)">450</text></g><g><text fill="#595959" font-family="Meiryo,Meiryo_MSFontService,sans-serif" font-weight="400" font-size="64" transform="matrix(1 0 0 1 2101.04 2635)">500</text></g><g><text fill="#595959" font-family="Meiryo,Meiryo_MSFontService,sans-serif" font-weight="400" font-size="64" transform="matrix(1 0 0 1 2364.3 2635)">550</text></g><g><text fill="#595959" font-family="Meiryo,Meiryo_MSFontService,sans-serif" font-weight="400" font-size="64" transform="matrix(1 0 0 1 2627.57 2635)">600</text></g><g><text fill="#595959" font-family="Meiryo,Meiryo_MSFontService,sans-serif" font-weight="400" font-size="64" transform="matrix(1 0 0 1 2890.84 2635)">650</text></g><g><text fill="#595959" font-family="Meiryo,Meiryo_MSFontService,sans-serif" font-weight="400" font-size="64" transform="matrix(1 0 0 1 3154.1 2635)">700</text></g><g><text fill="#595959" font-family="Meiryo,Meiryo_MSFontService,sans-serif" font-weight="400" font-size="64" transform="matrix(6.12323e-17 -1 1 6.12323e-17 1378.16 2182)">センサ応答</text></g><g><text fill="#595959" font-family="Meiryo,Meiryo_MSFontService,sans-serif" font-weight="400" font-size="64" transform="matrix(1 0 0 1 2245.13 2759)">波長（</text></g><g><text fill="#595959" font-family="Meiryo,Meiryo_MSFontService,sans-serif" font-weight="400" font-size="64" transform="matrix(1 0 0 1 2437.63 2759)">nm</text></g><g><text fill="#595959" font-family="Meiryo,Meiryo_MSFontService,sans-serif" font-weight="400" font-size="64" transform="matrix(1 0 0 1 2538.87 2759)">）</text></g><g><path d="M1403 1390 1518 1390" stroke="#5B9BD5" stroke-width="10.3125" stroke-linecap="round" stroke-linejoin="round" stroke-miterlimit="10" fill="none" fill-rule="evenodd"/></g><g><text fill="#595959" font-family="Meiryo,Meiryo_MSFontService,sans-serif" font-weight="400" font-size="64" transform="matrix(1 0 0 1 1531.18 1401)">真値</text></g><g><path d="M1718 1390 1833 1390" stroke="#ED7D31" stroke-width="10.3125" stroke-linecap="round" stroke-linejoin="round" stroke-miterlimit="10" stroke-dasharray="20.625 20.625" fill="none" fill-rule="evenodd"/></g><g><text fill="#595959" font-family="Meiryo,Meiryo_MSFontService,sans-serif" font-weight="400" font-size="64" transform="matrix(1 0 0 1 1846.17 1401)">Goh</text></g><g><text fill="#595959" font-family="Meiryo,Meiryo_MSFontService,sans-serif" font-weight="400" font-size="64" transform="matrix(1 0 0 1 1970.65 1401)">ら</text></g><g><path d="M2093 1390 2209 1390" stroke="#A5A5A5" stroke-width="10.3125" stroke-linecap="round" stroke-linejoin="round" stroke-miterlimit="10" stroke-dasharray="20.625 20.625" fill="none" fill-rule="evenodd"/></g><g><text fill="#595959" font-family="Meiryo,Meiryo_MSFontService,sans-serif" font-weight="400" font-size="64" transform="matrix(1 0 0 1 2221.47 1401)">フィルタ数</text></g><g><text fill="#595959" font-family="Meiryo,Meiryo_MSFontService,sans-serif" font-weight="400" font-size="64" transform="matrix(1 0 0 1 2564.12 1401)">5</text></g><g><path d="M2662 1390 2778 1390" stroke="#FFC000" stroke-width="10.3125" stroke-linecap="round" stroke-linejoin="round" stroke-miterlimit="10" stroke-dasharray="20.625 20.625" fill="none" fill-rule="evenodd"/></g><g><text fill="#595959" font-family="Meiryo,Meiryo_MSFontService,sans-serif" font-weight="400" font-size="64" transform="matrix(1 0 0 1 2790.62 1401)">フィルタ数</text></g><g><text fill="#595959" font-family="Meiryo,Meiryo_MSFontService,sans-serif" font-weight="400" font-size="64" transform="matrix(1 0 0 1 3133.27 1401)">3</text></g></g></svg>