<svg width="2082" height="1562" xmlns="http://www.w3.org/2000/svg" xmlns:xlink="http://www.w3.org/1999/xlink" xml:space="preserve" overflow="hidden"><defs><clipPath id="clip0"><rect x="1378" y="898" width="2082" height="1562"/></clipPath></defs><g clip-path="url(#clip0)" transform="translate(-1378 -898)"><rect x="1379" y="899" width="2079" height="1559" fill="#FFFFFF"/><g><path d="M1748.5 1920.56 3380.5 1920.56M1748.5 1720.56 3380.5 1720.56M1748.5 1520.55 3380.5 1520.55M1748.5 1320.54 3380.5 1320.54M1748.5 1120.5 3380.5 1120.5" stroke="#D9D9D9" stroke-width="3.4375" stroke-linejoin="round" stroke-miterlimit="10" fill="none"/></g><g><path d="M1748.5 2120.5 3380.5 2120.5" stroke="#D9D9D9" stroke-width="3.4375" stroke-linejoin="round" stroke-miterlimit="10" fill="none" fill-rule="evenodd"/></g><g><path d="M1775 1621.05 1827.06 1717.06 1880.06 1835.06 1932.06 1854.06 1985.07 1895 2038.07 1879.06 2090.07 1855.06 2143.07 1845.06 2196.07 1848.06 2248.07 1842.06 2301.08 1831.06 2354.08 1825.06 2406.08 1829.06 2459.08 1843.06 2512.08 1843.06 2564.08 1833.06 2617.09 1824.06 2670.09 1817.06 2722.09 1799.06 2775.09 1797.06 2828.09 1741.06 2880.09 1643.05 2933.1 1633.05 2985.1 1572.05 3038.1 1562.05 3091.1 1503.05 3143.1 1535.05 3196.1 1468.05 3249.11 1530.05 3301.11 1431 3354 1459.05" stroke="#5B9BD5" stroke-width="10.3125" stroke-linecap="round" stroke-linejoin="round" stroke-miterlimit="10" fill="none"/></g><g><path d="M1775 1708.06 1827.06 1783.06 1880.06 1865.06 1932.06 1891.06 1985.07 1898 2038.07 1896.06 2090.07 1872.06 2143.07 1870.06 2196.07 1870.06 2248.07 1859.06 2301.08 1846.06 2354.08 1839.06 2406.08 1836.06 2459.08 1840.06 2512.08 1842.06 2564.08 1818.06 2617.09 1812.06 2670.09 1811.06 2722.09 1811.06 2775.09 1794.06 2828.09 1715.06 2880.09 1636.05 2933.1 1596.05 2985.1 1547.05 3038.1 1522.05 3091.1 1485.05 3143.1 1497.05 3196.1 1439.05 3249.11 1487.05 3301.11 1391 3354 1426.05" stroke="#ED7D31" stroke-width="10.3125" stroke-linecap="round" stroke-linejoin="round" stroke-miterlimit="10" stroke-dasharray="20.625 20.625" fill="none"/></g><g><path d="M1775 1684.06 1827.06 1765.06 1880.06 1854.06 1932.06 1879.06 1985.07 1893 2038.07 1893.06 2090.07 1867.06 2143.07 1866.06 2196.07 1865.06 2248.07 1858.06 2301.08 1850.06 2354.08 1846.06 2406.08 1849.06 2459.08 1860.06 2512.08 1859.06 2564.08 1826.06 2617.09 1837.06 2670.09 1834.06 2722.09 1820.06 2775.09 1812.06 2828.09 1748.06 2880.09 1656.05 2933.1 1627.05 2985.1 1574.05 3038.1 1563.05 3091.1 1505.05 3143.1 1532.05 3196.1 1467.05 3249.11 1522.05 3301.11 1426 3354 1458.05" stroke="#A5A5A5" stroke-width="10.3125" stroke-linecap="round" stroke-linejoin="round" stroke-miterlimit="10" stroke-dasharray="20.625 20.625" fill="none"/></g><g><path d="M1775 1698.06 1827.06 1762.06 1880.06 1843.06 1932.06 1865.06 1985.07 1876 2038.07 1868.06 2090.07 1843.06 2143.07 1844.06 2196.07 1847.06 2248.07 1837.06 2301.08 1822.06 2354.08 1816.06 2406.08 1815.06 2459.08 1829.06 2512.08 1827.06 2564.08 1804.06 2617.09 1803.06 2670.09 1803.06 2722.09 1788.06 2775.09 1781.06 2828.09 1732.06 2880.09 1663.05 2933.1 1627.05 2985.1 1585.05 3038.1 1566.05 3091.1 1513.05 3143.1 1523.05 3196.1 1490.05 3249.11 1509.05 3301.11 1452 3354 1463.05" stroke="#FFC000" stroke-width="10.3125" stroke-linecap="round" stroke-linejoin="round" stroke-miterlimit="10" stroke-dasharray="20.625 20.625" fill="none"/></g><g><text fill="#595959" font-family="Meiryo,Meiryo_MSFontService,sans-serif" font-weight="400" font-size="64" transform="matrix(1 0 0 1 1637.56 2132)">0</text></g><g><text fill="#595959" font-family="Meiryo,Meiryo_MSFontService,sans-serif" font-weight="400" font-size="64" transform="matrix(1 0 0 1 1575.29 1932)">0.2</text></g><g><text fill="#595959" font-family="Meiryo,Meiryo_MSFontService,sans-serif" font-weight="400" font-size="64" transform="matrix(1 0 0 1 1575.29 1732)">0.4</text></g><g><text fill="#595959" font-family="Meiryo,Meiryo_MSFontService,sans-serif" font-weight="400" font-size="64" transform="matrix(1 0 0 1 1575.29 1532)">0.6</text></g><g><text fill="#595959" font-family="Meiryo,Meiryo_MSFontService,sans-serif" font-weight="400" font-size="64" transform="matrix(1 0 0 1 1575.29 1332)">0.8</text></g><g><text fill="#595959" font-family="Meiryo,Meiryo_MSFontService,sans-serif" font-weight="400" font-size="64" transform="matrix(1 0 0 1 1637.56 1132)">1</text></g><g><text fill="#595959" font-family="Meiryo,Meiryo_MSFontService,sans-serif" font-weight="400" font-size="64" transform="matrix(1 0 0 1 1714.75 2234)">400</text></g><g><text fill="#595959" font-family="Meiryo,Meiryo_MSFontService,sans-serif" font-weight="400" font-size="64" transform="matrix(1 0 0 1 1978.02 2234)">450</text></g><g><text fill="#595959" font-family="Meiryo,Meiryo_MSFontService,sans-serif" font-weight="400" font-size="64" transform="matrix(1 0 0 1 2241.29 2234)">500</text></g><g><text fill="#595959" font-family="Meiryo,Meiryo_MSFontService,sans-serif" font-weight="400" font-size="64" transform="matrix(1 0 0 1 2504.55 2234)">550</text></g><g><text fill="#595959" font-family="Meiryo,Meiryo_MSFontService,sans-serif" font-weight="400" font-size="64" transform="matrix(1 0 0 1 2767.82 2234)">600</text></g><g><text fill="#595959" font-family="Meiryo,Meiryo_MSFontService,sans-serif" font-weight="400" font-size="64" transform="matrix(1 0 0 1 3031.09 2234)">650</text></g><g><text fill="#595959" font-family="Meiryo,Meiryo_MSFontService,sans-serif" font-weight="400" font-size="64" transform="matrix(1 0 0 1 3294.35 2234)">700</text></g><g><text fill="#595959" font-family="Meiryo,Meiryo_MSFontService,sans-serif" font-weight="400" font-size="64" transform="matrix(6.12323e-17 -1 1 6.12323e-17 1518.41 1717)">画素値</text></g><g><text fill="#595959" font-family="Meiryo,Meiryo_MSFontService,sans-serif" font-weight="400" font-size="64" transform="matrix(1 0 0 1 2385.38 2358)">波長（</text></g><g><text fill="#595959" font-family="Meiryo,Meiryo_MSFontService,sans-serif" font-weight="400" font-size="64" transform="matrix(1 0 0 1 2577.88 2358)">nm</text></g><g><text fill="#595959" font-family="Meiryo,Meiryo_MSFontService,sans-serif" font-weight="400" font-size="64" transform="matrix(1 0 0 1 2679.12 2358)">）</text></g><g><path d="M1543 988 1659 988" stroke="#5B9BD5" stroke-width="10.3125" stroke-linecap="round" stroke-linejoin="round" stroke-miterlimit="10" fill="none" fill-rule="evenodd"/></g><g><text fill="#595959" font-family="Meiryo,Meiryo_MSFontService,sans-serif" font-weight="400" font-size="64" transform="matrix(1 0 0 1 1671.43 1000)">真値</text></g><g><path d="M1858 988 1974 988" stroke="#ED7D31" stroke-width="10.3125" stroke-linecap="round" stroke-linejoin="round" stroke-miterlimit="10" stroke-dasharray="20.625 20.625" fill="none" fill-rule="evenodd"/></g><g><text fill="#595959" font-family="Meiryo,Meiryo_MSFontService,sans-serif" font-weight="400" font-size="64" transform="matrix(1 0 0 1 1986.42 1000)">Goh</text></g><g><text fill="#595959" font-family="Meiryo,Meiryo_MSFontService,sans-serif" font-weight="400" font-size="64" transform="matrix(1 0 0 1 2110.9 1000)">ら</text></g><g><path d="M2233 988 2349 988" stroke="#A5A5A5" stroke-width="10.3125" stroke-linecap="round" stroke-linejoin="round" stroke-miterlimit="10" stroke-dasharray="20.625 20.625" fill="none" fill-rule="evenodd"/></g><g><text fill="#595959" font-family="Meiryo,Meiryo_MSFontService,sans-serif" font-weight="400" font-size="64" transform="matrix(1 0 0 1 2361.72 1000)">フィルタ数</text></g><g><text fill="#595959" font-family="Meiryo,Meiryo_MSFontService,sans-serif" font-weight="400" font-size="64" transform="matrix(1 0 0 1 2704.37 1000)">5</text></g><g><path d="M2803 988 2918 988" stroke="#FFC000" stroke-width="10.3125" stroke-linecap="round" stroke-linejoin="round" stroke-miterlimit="10" stroke-dasharray="20.625 20.625" fill="none" fill-rule="evenodd"/></g><g><text fill="#595959" font-family="Meiryo,Meiryo_MSFontService,sans-serif" font-weight="400" font-size="64" transform="matrix(1 0 0 1 2930.87 1000)">フィルタ数</text></g><g><text fill="#595959" font-family="Meiryo,Meiryo_MSFontService,sans-serif" font-weight="400" font-size="64" transform="matrix(1 0 0 1 3273.52 1000)">3</text></g><rect x="1379.5" y="899.5" width="2079" height="1559" stroke="#D9D9D9" stroke-width="3.4375" stroke-linejoin="round" stroke-miterlimit="10" fill="none"/></g></svg>