<svg width="2079" height="1559" xmlns="http://www.w3.org/2000/svg" xmlns:xlink="http://www.w3.org/1999/xlink" xml:space="preserve" overflow="hidden"><defs><clipPath id="clip0"><rect x="1387" y="899" width="2079" height="1559"/></clipPath></defs><g clip-path="url(#clip0)" transform="translate(-1387 -899)"><g><path d="M1756.5 1920.56 3388.5 1920.56M1756.5 1720.56 3388.5 1720.56M1756.5 1520.55 3388.5 1520.55M1756.5 1320.54 3388.5 1320.54M1756.5 1120.5 3388.5 1120.5" stroke="#D9D9D9" stroke-width="3.4375" stroke-linejoin="round" stroke-miterlimit="10" fill="none"/></g><g><path d="M1756.5 2120.5 3388.5 2120.5" stroke="#D9D9D9" stroke-width="3.4375" stroke-linejoin="round" stroke-miterlimit="10" fill="none" fill-rule="evenodd"/></g><g><path d="M1783 1621.05 1835.06 1717.06 1888.06 1835.06 1941.06 1854.06 1993.07 1895 2046.07 1879.06 2099.07 1855.06 2151.07 1845.06 2204.07 1848.06 2257.07 1842.06 2309.08 1831.06 2362.08 1825.06 2415.08 1829.06 2467.08 1843.06 2520.08 1843.06 2572.08 1833.06 2625.09 1824.06 2678.09 1817.06 2730.09 1799.06 2783.09 1797.06 2836.09 1741.06 2888.09 1643.05 2941.1 1633.05 2994.1 1572.05 3046.1 1562.05 3099.1 1503.05 3152.1 1535.05 3204.1 1468.05 3257.11 1530.05 3310.11 1431 3362 1459.05" stroke="#5B9BD5" stroke-width="10.3125" stroke-linecap="round" stroke-linejoin="round" stroke-miterlimit="10" fill="none"/></g><g><path d="M1783 1708.06 1835.06 1783.06 1888.06 1865.06 1941.06 1891.06 1993.07 1898 2046.07 1896.06 2099.07 1872.06 2151.07 1870.06 2204.07 1870.06 2257.07 1859.06 2309.08 1846.06 2362.08 1839.06 2415.08 1836.06 2467.08 1840.06 2520.08 1842.06 2572.08 1818.06 2625.09 1812.06 2678.09 1811.06 2730.09 1811.06 2783.09 1794.06 2836.09 1715.06 2888.09 1636.05 2941.1 1596.05 2994.1 1547.05 3046.1 1522.05 3099.1 1485.05 3152.1 1497.05 3204.1 1439.05 3257.11 1487.05 3310.11 1391 3362 1426.05" stroke="#ED7D31" stroke-width="10.3125" stroke-linecap="round" stroke-linejoin="round" stroke-miterlimit="10" stroke-dasharray="20.625 20.625" fill="none"/></g><g><path d="M1783 1684.06 1835.06 1765.06 1888.06 1854.06 1941.06 1879.06 1993.07 1893 2046.07 1893.06 2099.07 1867.06 2151.07 1866.06 2204.07 1865.06 2257.07 1858.06 2309.08 1850.06 2362.08 1846.06 2415.08 1849.06 2467.08 1860.06 2520.08 1859.06 2572.08 1826.06 2625.09 1837.06 2678.09 1834.06 2730.09 1820.06 2783.09 1812.06 2836.09 1748.06 2888.09 1656.05 2941.1 1627.05 2994.1 1574.05 3046.1 1563.05 3099.1 1505.05 3152.1 1532.05 3204.1 1467.05 3257.11 1522.05 3310.11 1426 3362 1458.05" stroke="#A5A5A5" stroke-width="10.3125" stroke-linecap="round" stroke-linejoin="round" stroke-miterlimit="10" stroke-dasharray="20.625 20.625" fill="none"/></g><g><path d="M1783 1698.06 1835.06 1762.06 1888.06 1843.06 1941.06 1865.06 1993.07 1876 2046.07 1868.06 2099.07 1843.06 2151.07 1844.06 2204.07 1847.06 2257.07 1837.06 2309.08 1822.06 2362.08 1816.06 2415.08 1815.06 2467.08 1829.06 2520.08 1827.06 2572.08 1804.06 2625.09 1803.06 2678.09 1803.06 2730.09 1788.06 2783.09 1781.06 2836.09 1732.06 2888.09 1663.05 2941.1 1627.05 2994.1 1585.05 3046.1 1566.05 3099.1 1513.05 3152.1 1523.05 3204.1 1490.05 3257.11 1509.05 3310.11 1452 3362 1463.05" stroke="#FFC000" stroke-width="10.3125" stroke-linecap="round" stroke-linejoin="round" stroke-miterlimit="10" stroke-dasharray="20.625 20.625" fill="none"/></g><g><text fill="#595959" font-family="Meiryo,Meiryo_MSFontService,sans-serif" font-weight="400" font-size="64" transform="matrix(1 0 0 1 1645.81 2132)">0</text></g><g><text fill="#595959" font-family="Meiryo,Meiryo_MSFontService,sans-serif" font-weight="400" font-size="64" transform="matrix(1 0 0 1 1583.54 1932)">0.2</text></g><g><text fill="#595959" font-family="Meiryo,Meiryo_MSFontService,sans-serif" font-weight="400" font-size="64" transform="matrix(1 0 0 1 1583.54 1732)">0.4</text></g><g><text fill="#595959" font-family="Meiryo,Meiryo_MSFontService,sans-serif" font-weight="400" font-size="64" transform="matrix(1 0 0 1 1583.54 1532)">0.6</text></g><g><text fill="#595959" font-family="Meiryo,Meiryo_MSFontService,sans-serif" font-weight="400" font-size="64" transform="matrix(1 0 0 1 1583.54 1332)">0.8</text></g><g><text fill="#595959" font-family="Meiryo,Meiryo_MSFontService,sans-serif" font-weight="400" font-size="64" transform="matrix(1 0 0 1 1645.81 1132)">1</text></g><g><text fill="#595959" font-family="Meiryo,Meiryo_MSFontService,sans-serif" font-weight="400" font-size="64" transform="matrix(1 0 0 1 1723 2234)">400</text></g><g><text fill="#595959" font-family="Meiryo,Meiryo_MSFontService,sans-serif" font-weight="400" font-size="64" transform="matrix(1 0 0 1 1986.27 2234)">450</text></g><g><text fill="#595959" font-family="Meiryo,Meiryo_MSFontService,sans-serif" font-weight="400" font-size="64" transform="matrix(1 0 0 1 2249.54 2234)">500</text></g><g><text fill="#595959" font-family="Meiryo,Meiryo_MSFontService,sans-serif" font-weight="400" font-size="64" transform="matrix(1 0 0 1 2512.8 2234)">550</text></g><g><text fill="#595959" font-family="Meiryo,Meiryo_MSFontService,sans-serif" font-weight="400" font-size="64" transform="matrix(1 0 0 1 2776.07 2234)">600</text></g><g><text fill="#595959" font-family="Meiryo,Meiryo_MSFontService,sans-serif" font-weight="400" font-size="64" transform="matrix(1 0 0 1 3039.34 2234)">650</text></g><g><text fill="#595959" font-family="Meiryo,Meiryo_MSFontService,sans-serif" font-weight="400" font-size="64" transform="matrix(1 0 0 1 3302.6 2234)">700</text></g><g><text fill="#595959" font-family="Meiryo,Meiryo_MSFontService,sans-serif" font-weight="400" font-size="64" transform="matrix(6.12323e-17 -1 1 6.12323e-17 1526.66 1781)">センサ応答</text></g><g><text fill="#595959" font-family="Meiryo,Meiryo_MSFontService,sans-serif" font-weight="400" font-size="64" transform="matrix(1 0 0 1 2393.63 2358)">波長（</text></g><g><text fill="#595959" font-family="Meiryo,Meiryo_MSFontService,sans-serif" font-weight="400" font-size="64" transform="matrix(1 0 0 1 2586.13 2358)">nm</text></g><g><text fill="#595959" font-family="Meiryo,Meiryo_MSFontService,sans-serif" font-weight="400" font-size="64" transform="matrix(1 0 0 1 2687.37 2358)">）</text></g><g><path d="M1551 988 1667 988" stroke="#5B9BD5" stroke-width="10.3125" stroke-linecap="round" stroke-linejoin="round" stroke-miterlimit="10" fill="none" fill-rule="evenodd"/></g><g><text fill="#595959" font-family="Meiryo,Meiryo_MSFontService,sans-serif" font-weight="400" font-size="64" transform="matrix(1 0 0 1 1679.68 1000)">真値</text></g><g><path d="M1866 988 1982 988" stroke="#ED7D31" stroke-width="10.3125" stroke-linecap="round" stroke-linejoin="round" stroke-miterlimit="10" stroke-dasharray="20.625 20.625" fill="none" fill-rule="evenodd"/></g><g><text fill="#595959" font-family="Meiryo,Meiryo_MSFontService,sans-serif" font-weight="400" font-size="64" transform="matrix(1 0 0 1 1994.67 1000)">Goh</text></g><g><text fill="#595959" font-family="Meiryo,Meiryo_MSFontService,sans-serif" font-weight="400" font-size="64" transform="matrix(1 0 0 1 2119.15 1000)">ら</text></g><g><path d="M2242 988 2357 988" stroke="#A5A5A5" stroke-width="10.3125" stroke-linecap="round" stroke-linejoin="round" stroke-miterlimit="10" stroke-dasharray="20.625 20.625" fill="none" fill-rule="evenodd"/></g><g><text fill="#595959" font-family="Meiryo,Meiryo_MSFontService,sans-serif" font-weight="400" font-size="64" transform="matrix(1 0 0 1 2369.97 1000)">フィルタ数</text></g><g><text fill="#595959" font-family="Meiryo,Meiryo_MSFontService,sans-serif" font-weight="400" font-size="64" transform="matrix(1 0 0 1 2712.62 1000)">5</text></g><g><path d="M2811 988 2926 988" stroke="#FFC000" stroke-width="10.3125" stroke-linecap="round" stroke-linejoin="round" stroke-miterlimit="10" stroke-dasharray="20.625 20.625" fill="none" fill-rule="evenodd"/></g><g><text fill="#595959" font-family="Meiryo,Meiryo_MSFontService,sans-serif" font-weight="400" font-size="64" transform="matrix(1 0 0 1 2939.12 1000)">フィルタ数</text></g><g><text fill="#595959" font-family="Meiryo,Meiryo_MSFontService,sans-serif" font-weight="400" font-size="64" transform="matrix(1 0 0 1 3281.77 1000)">3</text></g></g></svg>