<svg width="2081" height="1562" xmlns="http://www.w3.org/2000/svg" xmlns:xlink="http://www.w3.org/1999/xlink" xml:space="preserve" overflow="hidden"><defs><clipPath id="clip0"><rect x="1769" y="1309" width="2081" height="1562"/></clipPath></defs><g clip-path="url(#clip0)" transform="translate(-1769 -1309)"><rect x="1770" y="1310" width="2078" height="1559" fill="#FFFFFF"/><g><path d="M2138.5 2331.58 3771.5 2331.58M2138.5 2131.57 3771.5 2131.57M2138.5 1931.56 3771.5 1931.56M2138.5 1731.56 3771.5 1731.56M2138.5 1531.5 3771.5 1531.5" stroke="#D9D9D9" stroke-width="3.4375" stroke-linejoin="round" stroke-miterlimit="10" fill="none"/></g><g><path d="M2138.5 2531.5 3771.5 2531.5" stroke="#D9D9D9" stroke-width="3.4375" stroke-linejoin="round" stroke-miterlimit="10" fill="none" fill-rule="evenodd"/></g><g><path d="M2165 2087.07 2218.07 2147.07 2270.07 2225.07 2323.08 2250.07 2376.08 2293 2428.08 2285.07 2481.08 2269.07 2534.08 2260.07 2586.08 2248.07 2639.09 2254.07 2692.09 2251.07 2744.09 2242.07 2797.09 2243.07 2850.09 2253.07 2902.1 2257.07 2955.1 2246.07 3007.1 2243.07 3060.1 2234.07 3113.1 2237.07 3165.1 2228.07 3218.11 2158.07 3271.11 2083.07 3323.11 2077.07 3376.11 2023.07 3429.11 2014.07 3481.11 1988.07 3534.12 2005.07 3587.12 1939.06 3639.12 2021.07 3692.12 1912 3745 1945.06" stroke="#5B9BD5" stroke-width="10.3125" stroke-linecap="round" stroke-linejoin="round" stroke-miterlimit="10" fill="none"/></g><g><path d="M2165 2105.07 2218.07 2178.07 2270.07 2262.07 2323.08 2288.08 2376.08 2291 2428.08 2290.08 2481.08 2263.07 2534.08 2261.07 2586.08 2260.07 2639.09 2250.07 2692.09 2238.07 2744.09 2232.07 2797.09 2231.07 2850.09 2239.07 2902.1 2242.07 2955.1 2221.07 3007.1 2218.07 3060.1 2217.07 3113.1 2221.07 3165.1 2208.07 3218.11 2138.07 3271.11 2079.07 3323.11 2049.07 3376.11 2012.07 3429.11 1997.07 3481.11 1972.06 3534.12 1976.06 3587.12 1941.06 3639.12 1985.07 3692.12 1913 3745 1940.06" stroke="#ED7D31" stroke-width="10.3125" stroke-linecap="round" stroke-linejoin="round" stroke-miterlimit="10" stroke-dasharray="20.625 20.625" fill="none"/></g><g><path d="M2165 2048.07 2218.07 2125.07 2270.07 2223.07 2323.08 2256.07 2376.08 2268 2428.08 2261.07 2481.08 2234.07 2534.08 2233.07 2586.08 2227.07 2639.09 2228.07 2692.09 2225.07 2744.09 2224.07 2797.09 2228.07 2850.09 2237.07 2902.1 2236.07 2955.1 2219.07 3007.1 2218.07 3060.1 2210.07 3113.1 2211.07 3165.1 2204.07 3218.11 2134.07 3271.11 2065.07 3323.11 2055.07 3376.11 2014.07 3429.11 2008.07 3481.11 1983.07 3534.12 2002.07 3587.12 1943.06 3639.12 2014.07 3692.12 1911 3745 1944.06" stroke="#A5A5A5" stroke-width="10.3125" stroke-linecap="round" stroke-linejoin="round" stroke-miterlimit="10" stroke-dasharray="20.625 20.625" fill="none"/></g><g><path d="M2165 2074.07 2218.07 2150.07 2270.07 2242.07 2323.08 2273.07 2376.08 2277 2428.08 2275.07 2481.08 2248.07 2534.08 2246.07 2586.08 2244.07 2639.09 2239.07 2692.09 2233.07 2744.09 2228.07 2797.09 2229.07 2850.09 2234.07 2902.1 2237.07 2955.1 2219.07 3007.1 2214.07 3060.1 2209.07 3113.1 2218.07 3165.1 2208.07 3218.11 2134.07 3271.11 2082.07 3323.11 2062.07 3376.11 2024.07 3429.11 2011.07 3481.11 1993.07 3534.12 1996.07 3587.12 1951.06 3639.12 2011.07 3692.12 1916 3745 1949.06" stroke="#FFC000" stroke-width="10.3125" stroke-linecap="round" stroke-linejoin="round" stroke-miterlimit="10" stroke-dasharray="20.625 20.625" fill="none"/></g><g><text fill="#595959" font-family="Meiryo,Meiryo_MSFontService,sans-serif" font-weight="400" font-size="64" transform="matrix(1 0 0 1 2028.15 2543)">0</text></g><g><text fill="#595959" font-family="Meiryo,Meiryo_MSFontService,sans-serif" font-weight="400" font-size="64" transform="matrix(1 0 0 1 1965.89 2343)">0.2</text></g><g><text fill="#595959" font-family="Meiryo,Meiryo_MSFontService,sans-serif" font-weight="400" font-size="64" transform="matrix(1 0 0 1 1965.89 2143)">0.4</text></g><g><text fill="#595959" font-family="Meiryo,Meiryo_MSFontService,sans-serif" font-weight="400" font-size="64" transform="matrix(1 0 0 1 1965.89 1943)">0.6</text></g><g><text fill="#595959" font-family="Meiryo,Meiryo_MSFontService,sans-serif" font-weight="400" font-size="64" transform="matrix(1 0 0 1 1965.89 1743)">0.8</text></g><g><text fill="#595959" font-family="Meiryo,Meiryo_MSFontService,sans-serif" font-weight="400" font-size="64" transform="matrix(1 0 0 1 2028.15 1543)">1</text></g><g><text fill="#595959" font-family="Meiryo,Meiryo_MSFontService,sans-serif" font-weight="400" font-size="64" transform="matrix(1 0 0 1 2105.35 2645)">400</text></g><g><text fill="#595959" font-family="Meiryo,Meiryo_MSFontService,sans-serif" font-weight="400" font-size="64" transform="matrix(1 0 0 1 2368.61 2645)">450</text></g><g><text fill="#595959" font-family="Meiryo,Meiryo_MSFontService,sans-serif" font-weight="400" font-size="64" transform="matrix(1 0 0 1 2631.88 2645)">500</text></g><g><text fill="#595959" font-family="Meiryo,Meiryo_MSFontService,sans-serif" font-weight="400" font-size="64" transform="matrix(1 0 0 1 2895.15 2645)">550</text></g><g><text fill="#595959" font-family="Meiryo,Meiryo_MSFontService,sans-serif" font-weight="400" font-size="64" transform="matrix(1 0 0 1 3158.41 2645)">600</text></g><g><text fill="#595959" font-family="Meiryo,Meiryo_MSFontService,sans-serif" font-weight="400" font-size="64" transform="matrix(1 0 0 1 3421.68 2645)">650</text></g><g><text fill="#595959" font-family="Meiryo,Meiryo_MSFontService,sans-serif" font-weight="400" font-size="64" transform="matrix(1 0 0 1 3684.95 2645)">700</text></g><g><text fill="#595959" font-family="Meiryo,Meiryo_MSFontService,sans-serif" font-weight="400" font-size="64" transform="matrix(6.12323e-17 -1 1 6.12323e-17 1909.01 2128)">画素値</text></g><g><text fill="#595959" font-family="Meiryo,Meiryo_MSFontService,sans-serif" font-weight="400" font-size="64" transform="matrix(1 0 0 1 2775.97 2769)">波長（</text></g><g><text fill="#595959" font-family="Meiryo,Meiryo_MSFontService,sans-serif" font-weight="400" font-size="64" transform="matrix(1 0 0 1 2968.47 2769)">nm</text></g><g><text fill="#595959" font-family="Meiryo,Meiryo_MSFontService,sans-serif" font-weight="400" font-size="64" transform="matrix(1 0 0 1 3069.72 2769)">）</text></g><g><path d="M1934 1399 2049 1399" stroke="#5B9BD5" stroke-width="10.3125" stroke-linecap="round" stroke-linejoin="round" stroke-miterlimit="10" fill="none" fill-rule="evenodd"/></g><g><text fill="#595959" font-family="Meiryo,Meiryo_MSFontService,sans-serif" font-weight="400" font-size="64" transform="matrix(1 0 0 1 2062.03 1411)">真値</text></g><g><path d="M2249 1399 2364 1399" stroke="#ED7D31" stroke-width="10.3125" stroke-linecap="round" stroke-linejoin="round" stroke-miterlimit="10" stroke-dasharray="20.625 20.625" fill="none" fill-rule="evenodd"/></g><g><text fill="#595959" font-family="Meiryo,Meiryo_MSFontService,sans-serif" font-weight="400" font-size="64" transform="matrix(1 0 0 1 2377.01 1411)">Goh</text></g><g><text fill="#595959" font-family="Meiryo,Meiryo_MSFontService,sans-serif" font-weight="400" font-size="64" transform="matrix(1 0 0 1 2501.49 1411)">ら</text></g><g><path d="M2624 1399 2740 1399" stroke="#A5A5A5" stroke-width="10.3125" stroke-linecap="round" stroke-linejoin="round" stroke-miterlimit="10" stroke-dasharray="20.625 20.625" fill="none" fill-rule="evenodd"/></g><g><text fill="#595959" font-family="Meiryo,Meiryo_MSFontService,sans-serif" font-weight="400" font-size="64" transform="matrix(1 0 0 1 2752.31 1411)">フィルタ数</text></g><g><text fill="#595959" font-family="Meiryo,Meiryo_MSFontService,sans-serif" font-weight="400" font-size="64" transform="matrix(1 0 0 1 3094.96 1411)">5</text></g><g><path d="M3193 1399 3309 1399" stroke="#FFC000" stroke-width="10.3125" stroke-linecap="round" stroke-linejoin="round" stroke-miterlimit="10" stroke-dasharray="20.625 20.625" fill="none" fill-rule="evenodd"/></g><g><text fill="#595959" font-family="Meiryo,Meiryo_MSFontService,sans-serif" font-weight="400" font-size="64" transform="matrix(1 0 0 1 3321.46 1411)">フィルタ数</text></g><g><text fill="#595959" font-family="Meiryo,Meiryo_MSFontService,sans-serif" font-weight="400" font-size="64" transform="matrix(1 0 0 1 3664.11 1411)">3</text></g><rect x="1770.5" y="1310.5" width="2078" height="1559" stroke="#D9D9D9" stroke-width="3.4375" stroke-linejoin="round" stroke-miterlimit="10" fill="none"/></g></svg>